<?xml version="1.0" encoding="utf-8"?>
<!-- Generator: Adobe Illustrator 19.2.1, SVG Export Plug-In . SVG Version: 6.00 Build 0)  -->
<svg version="1.1" id="Слой_1" xmlns="http://www.w3.org/2000/svg" xmlns:xlink="http://www.w3.org/1999/xlink" x="0px" y="0px"
	 viewBox="0 0 300 300" style="enable-background:new 0 0 300 300;" xml:space="preserve">
<style type="text/css">
	.st0{fill:url(#SVGID_1_);}
	.st1{fill:#FFFFFF;}
	.st2{fill:none;}
	.st3{font-family:'MullerNarrow-Light';}
	.st4{font-size:30px;}
	.st5{font-family:'MullerNarrow-ExtraBold';}
	.st6{font-size:44px;}
</style>
<g id="Слой_2">
	
		<linearGradient id="SVGID_1_" gradientUnits="userSpaceOnUse" x1="8.3156" y1="292.9706" x2="291.6969" y2="9.5894" gradientTransform="matrix(1 0 0 -1 0 301.28)">
		<stop  offset="0" style="stop-color:#5433FE"/>
		<stop  offset="0.4745" style="stop-color:#0FC1FF"/>
		<stop  offset="0.9451" style="stop-color:#A7FFCC"/>
	</linearGradient>
	<path class="st0" d="M271.6,300H28.4C12.7,300,0,287.3,0,271.6V28.4C0,12.7,12.7,0,28.4,0h243.3C287.3,0,300,12.7,300,28.4v243.3
		C300,287.3,287.3,300,271.6,300z"/>
</g>
<g id="Слой_1_1_">
	<g>
		<path class="st1" d="M113.3,111.1V98.9c0-1.7,1.4-3.1,3.1-3.1s3.1,1.4,3.1,3.1v12.2c0,1.7-1.4,3.1-3.1,3.1
			C114.7,114.2,113.3,112.8,113.3,111.1z M165.3,114.2c1.7,0,3.1-1.4,3.1-3.1V98.9c0-1.7-1.4-3.1-3.1-3.1c-1.7,0-3.1,1.4-3.1,3.1
			v12.2C162.2,112.8,163.6,114.2,165.3,114.2z M198.9,169.2c0,13.5-10.9,24.4-24.4,24.4s-24.4-10.9-24.4-24.4s10.9-24.4,24.4-24.4
			C188,144.7,198.9,155.7,198.9,169.2z M192.8,169.2c0-10.1-8.2-18.3-18.3-18.3s-18.3,8.2-18.3,18.3s8.2,18.3,18.3,18.3
			S192.8,179.3,192.8,169.2z M125.6,132.5h-12.2v12.2h12.2V132.5z M113.3,163.1h12.2v-12.2h-12.2V163.1z M131.7,144.7h12.2v-12.2
			h-12.2V144.7z M131.7,163.1h12.2v-12.2h-12.2V163.1z M107.2,168.6v-42.2h67.2v12.2h6.1v-23.8c0-3.7-3-6.7-6.6-6.7h-2.5v3.1
			c0,3.4-2.7,6.1-6.1,6.1c-3.4,0-6.1-2.7-6.1-6.1v-3.1h-36.7v3.1c0,3.4-2.7,6.1-6.1,6.1s-6.1-2.7-6.1-6.1v-3.1h-2.5
			c-3.7,0-6.6,3-6.6,6.7v53.8c0,3.7,3,6.7,6.6,6.7H144v-6.1h-36.2C107.4,169.2,107.2,168.9,107.2,168.6z M162.2,144.7v-12.2H150
			v12.2H162.2z M183.6,169.2h-9.2V160c0-1.7-1.4-3.1-3.1-3.1s-3.1,1.4-3.1,3.1v12.2c0,1.7,1.4,3.1,3.1,3.1h12.2
			c1.7,0,3.1-1.4,3.1-3.1C186.7,170.5,185.3,169.2,183.6,169.2z"/>
	</g>
	<rect x="1" y="215.1" class="st2" width="300" height="118"/>
	<text transform="matrix(1 0 0 1 100.6315 236.0776)" class="st1 st3 st4">for salon, </text>
	<text transform="matrix(1 0 0 1 86.0315 272.0776)" class="st1 st3 st4">medical etc.</text>
	<rect y="34.8" class="st2" width="300" height="112"/>
	<text transform="matrix(1 0 0 1 33.7542 65.6305)" class="st1 st5 st6">Appointment</text>
</g>
</svg>
