<?xml version="1.0" encoding="utf-8"?>
<!-- Generator: Adobe Illustrator 19.2.1, SVG Export Plug-In . SVG Version: 6.00 Build 0)  -->
<svg version="1.1" id="Слой_1" xmlns="http://www.w3.org/2000/svg" xmlns:xlink="http://www.w3.org/1999/xlink" x="0px" y="0px"
	 viewBox="0 0 300 300" style="enable-background:new 0 0 300 300;" xml:space="preserve">
<style type="text/css">
	.st0{fill:url(#SVGID_1_);}
	.st1{fill:#FFFFFF;}
	.st2{fill:none;}
	.st3{enable-background:new    ;}
</style>
<g id="Слой_2">
	
		<linearGradient id="SVGID_1_" gradientUnits="userSpaceOnUse" x1="8.3156" y1="219.0294" x2="291.6969" y2="502.4106" gradientTransform="matrix(1 0 0 1 0 -210.72)">
		<stop  offset="0" style="stop-color:#5433FE"/>
		<stop  offset="0.4745" style="stop-color:#0FC1FF"/>
		<stop  offset="0.9451" style="stop-color:#A7FFCC"/>
	</linearGradient>
	<path class="st0" d="M271.6,300H28.4C12.7,300,0,287.3,0,271.6V28.4C0,12.7,12.7,0,28.4,0h243.3C287.3,0,300,12.7,300,28.4v243.3
		C300,287.3,287.3,300,271.6,300z"/>
</g>
<g>
	<path class="st1" d="M113.3,111.1V98.9c0-1.7,1.4-3.1,3.1-3.1s3.1,1.4,3.1,3.1v12.2c0,1.7-1.4,3.1-3.1,3.1
		C114.7,114.2,113.3,112.8,113.3,111.1z M165.3,114.2c1.7,0,3.1-1.4,3.1-3.1V98.9c0-1.7-1.4-3.1-3.1-3.1c-1.7,0-3.1,1.4-3.1,3.1
		v12.2C162.2,112.8,163.6,114.2,165.3,114.2z M198.9,169.2c0,13.5-10.9,24.4-24.4,24.4s-24.4-10.9-24.4-24.4s10.9-24.4,24.4-24.4
		C188,144.7,198.9,155.7,198.9,169.2z M192.8,169.2c0-10.1-8.2-18.3-18.3-18.3s-18.3,8.2-18.3,18.3s8.2,18.3,18.3,18.3
		S192.8,179.3,192.8,169.2z M125.6,132.5h-12.2v12.2h12.2V132.5z M113.3,163.1h12.2v-12.2h-12.2V163.1z M131.7,144.7h12.2v-12.2
		h-12.2V144.7z M131.7,163.1h12.2v-12.2h-12.2V163.1z M107.2,168.6v-42.2h67.2v12.2h6.1v-23.8c0-3.7-3-6.7-6.6-6.7h-2.5v3.1
		c0,3.4-2.7,6.1-6.1,6.1c-3.4,0-6.1-2.7-6.1-6.1v-3.1h-36.7v3.1c0,3.4-2.7,6.1-6.1,6.1s-6.1-2.7-6.1-6.1v-3.1h-2.5
		c-3.7,0-6.6,3-6.6,6.7v53.8c0,3.7,3,6.7,6.6,6.7H144v-6.1h-36.2C107.4,169.2,107.2,168.9,107.2,168.6z M162.2,144.7v-12.2H150v12.2
		H162.2z M183.6,169.2h-9.2V160c0-1.7-1.4-3.1-3.1-3.1s-3.1,1.4-3.1,3.1v12.2c0,1.7,1.4,3.1,3.1,3.1h12.2c1.7,0,3.1-1.4,3.1-3.1
		C186.7,170.5,185.3,169.2,183.6,169.2z"/>
</g>
<rect x="1" y="215.1" class="st2" width="300" height="118"/>
<g class="st3">
	<path class="st1" d="M103.2,223.2h-2.1v-1.5h2.1V219c0-2.7,1.5-4.3,4-4.3c0.9,0,1.6,0.2,2.2,0.5v1.5c-0.6-0.3-1.2-0.4-1.9-0.4
		c-1.6,0-2.6,0.8-2.6,2.6v2.8h3.7v1.5h-3.7v12.9h-1.7V223.2z"/>
	<path class="st1" d="M121.3,228.9c0,4.7-2.1,7.5-5.8,7.5c-3.8,0-5.9-2.8-5.9-7.5c0-4.7,2.1-7.5,5.9-7.5
		C119.2,221.3,121.3,224.1,121.3,228.9z M111.3,228.9c0,3.7,1.3,5.9,4.1,5.9c2.8,0,4.1-2.3,4.1-5.9c0-3.7-1.3-6-4.1-6
		C112.7,222.9,111.3,225.2,111.3,228.9z"/>
	<path class="st1" d="M124.2,221.7h1.6v2.9c1-2.4,2.9-3.3,5.2-3.2v1.7c-2.4-0.2-4.3,0.9-5,3.8v9.1h-1.7V221.7z"/>
	<path class="st1" d="M146.3,222.3v1.6c-1.2-0.7-2.4-1.1-3.7-1.1c-1.8,0-3.1,0.9-3.1,2.4c0,3.6,7.7,2.2,7.7,7.2
		c0,2.7-2.2,3.9-4.9,3.9c-1.8,0-3.3-0.4-4.5-1.1v-1.7c1.2,0.8,2.7,1.2,4.4,1.2c1.9,0,3.3-0.8,3.3-2.3c0-3.7-7.7-2.1-7.7-7.2
		c0-2.4,1.9-3.9,4.7-3.9C143.8,221.3,145.1,221.7,146.3,222.3z"/>
	<path class="st1" d="M160.8,234.6v1.4c-0.3,0.1-0.7,0.2-1,0.2c-1.1,0-2-0.5-2.3-1.8c-1,1.4-2.6,2-4.3,2c-2.4,0-4.6-1.3-4.6-4.3
		c0-3.1,2.4-4.6,5.7-4.6c0.9,0,1.9,0.2,2.9,0.4v-1.5c0-1.9-0.8-3.5-3.6-3.5c-1.5,0-2.9,0.4-4.1,0.9v-1.7c1-0.4,2.6-0.8,4.3-0.8
		c3.8,0,5.1,2.2,5.1,5.2v6.8c0,1,0.5,1.4,1.3,1.4C160.5,234.7,160.7,234.7,160.8,234.6z M157.3,232.7v-3.4c-0.9-0.3-1.8-0.4-2.7-0.4
		c-2.5,0-4.2,0.9-4.2,3.1c0,1.9,1.3,2.9,3.1,2.9C155.3,234.9,156.6,234.2,157.3,232.7z"/>
	<path class="st1" d="M164.7,236.1H163v-21.9h1.7V236.1z"/>
	<path class="st1" d="M179.4,228.9c0,4.7-2.1,7.5-5.8,7.5c-3.8,0-5.9-2.8-5.9-7.5c0-4.7,2.1-7.5,5.9-7.5
		C177.3,221.3,179.4,224.1,179.4,228.9z M169.4,228.9c0,3.7,1.3,5.9,4.1,5.9c2.8,0,4.1-2.3,4.1-5.9c0-3.7-1.3-6-4.1-6
		C170.8,222.9,169.4,225.2,169.4,228.9z"/>
	<path class="st1" d="M182.4,221.7h1.6v2.1c0.8-1.4,2.2-2.4,4.3-2.4c2.7,0,4.5,1.8,4.5,5v9.8H191v-9.7c0-2.4-1.3-3.5-3.2-3.5
		c-1.9,0-3.2,1.3-3.7,2.9v10.2h-1.7V221.7z"/>
	<path class="st1" d="M196.1,233.8h1.8l-0.9,6.7h-1.4L196.1,233.8z"/>
</g>
<g class="st3">
	<path class="st1" d="M105.4,262.2v9.9h-1.7v-9.8c0-2.2-1-3.4-2.8-3.4c-1.6,0-2.6,1.1-3.4,2.5v10.6h-1.7v-9.8c0-2.2-1-3.4-2.8-3.4
		c-1.6,0-2.7,1.1-3.4,2.7v10.5h-1.7v-14.4h1.6v2c0.9-1.5,2.2-2.3,3.8-2.3c1.8,0,3,0.9,3.7,2.3c1.1-1.6,2.4-2.3,4.1-2.3
		C103.9,257.3,105.4,259.4,105.4,262.2z"/>
	<path class="st1" d="M108.2,264.9c0-4.5,2.2-7.5,5.8-7.5c4,0,5.8,3.6,5.3,8.4H110c0.2,3.5,2,5.1,5,5.1c1.1,0,2.3-0.2,3.5-0.8v1.6
		c-1.1,0.6-2.4,0.8-3.6,0.8C110.5,272.4,108.2,269.5,108.2,264.9z M117.8,264.2c0.1-3.2-1.1-5.3-3.7-5.3c-2.6,0-4,2.1-4.1,5.3H117.8
		z"/>
	<path class="st1" d="M127,257.3c2.1,0,3.4,1.2,4.1,2.4v-8.7h1.7v21h-1.6v-2.3c-0.7,1.4-2.1,2.6-4.3,2.6c-3.7,0-5.5-3.3-5.5-7.5
		C121.5,260.6,123.3,257.3,127,257.3z M131.1,262c-0.7-1.9-2-3.1-3.8-3.1c-2.8,0-4,2.5-4,6c0,3.5,1.2,6,4,6c1.8,0,3.1-1.1,3.8-3.1
		V262z"/>
	<path class="st1" d="M136.3,253.3c0-0.7,0.5-1.1,1.2-1.1s1.2,0.4,1.2,1.1c0,0.8-0.5,1.1-1.2,1.1S136.3,254.1,136.3,253.3z
		 M136.6,257.7h1.7v14.4h-1.7V257.7z"/>
	<path class="st1" d="M141.3,264.9c0-4.6,2.4-7.5,6.2-7.5c1.2,0,2.2,0.2,3.1,0.8v1.6c-0.9-0.5-1.8-0.8-2.9-0.8c-3,0-4.7,2.4-4.7,6
		c0,3.7,1.4,5.9,4.5,5.9c1.3,0,2.4-0.3,3.3-0.8v1.6c-0.8,0.5-2,0.8-3.3,0.8C143.4,272.4,141.3,269.4,141.3,264.9z"/>
	<path class="st1" d="M164.5,270.6v1.4c-0.3,0.1-0.7,0.2-1,0.2c-1.1,0-2-0.5-2.3-1.8c-1,1.4-2.6,2-4.3,2c-2.4,0-4.6-1.3-4.6-4.3
		c0-3.1,2.4-4.6,5.7-4.6c0.9,0,1.9,0.2,2.9,0.4v-1.5c0-1.9-0.8-3.5-3.6-3.5c-1.5,0-2.8,0.4-4.1,0.9v-1.7c1-0.4,2.6-0.8,4.3-0.8
		c3.8,0,5.1,2.2,5.1,5.2v6.8c0,1,0.5,1.4,1.3,1.4C164.1,270.7,164.3,270.7,164.5,270.6z M161,268.7v-3.4c-0.9-0.3-1.8-0.4-2.7-0.4
		c-2.5,0-4.2,0.9-4.2,3.1c0,1.9,1.3,2.9,3.1,2.9C158.9,270.9,160.2,270.2,161,268.7z"/>
	<path class="st1" d="M168.3,272.1h-1.7v-21.9h1.7V272.1z"/>
	<path class="st1" d="M177.3,264.9c0-4.5,2.2-7.5,5.8-7.5c4,0,5.8,3.6,5.3,8.4h-9.4c0.2,3.5,2,5.1,5,5.1c1.1,0,2.3-0.2,3.5-0.8v1.6
		c-1.1,0.6-2.4,0.8-3.6,0.8C179.6,272.4,177.3,269.5,177.3,264.9z M186.9,264.2c0.1-3.2-1.1-5.3-3.7-5.3c-2.6,0-4,2.1-4.1,5.3H186.9
		z"/>
	<path class="st1" d="M191.9,268.5v-9.3h-2.2v-1.5h2.2v-3.9l1.7-0.4v4.3h4v1.5h-4v9.1c0,1.8,0.7,2.6,2.1,2.6c0.7,0,1.3-0.2,2-0.5
		v1.6c-0.6,0.3-1.3,0.4-2.1,0.4C193.3,272.4,191.9,271.1,191.9,268.5z"/>
	<path class="st1" d="M199.1,264.9c0-4.6,2.4-7.5,6.2-7.5c1.2,0,2.2,0.2,3.1,0.8v1.6c-0.9-0.5-1.8-0.8-2.9-0.8c-3,0-4.7,2.4-4.7,6
		c0,3.7,1.4,5.9,4.5,5.9c1.3,0,2.4-0.3,3.3-0.8v1.6c-0.8,0.5-2,0.8-3.3,0.8C201.2,272.4,199.1,269.4,199.1,264.9z"/>
	<path class="st1" d="M210.7,271.1c0-0.8,0.6-1.2,1.2-1.2s1.2,0.4,1.2,1.2s-0.5,1.2-1.2,1.2S210.7,271.9,210.7,271.1z"/>
</g>
<rect y="34.8" class="st2" width="300" height="112"/>
<g class="st3">
	<path class="st1" d="M43.3,34.8H51l9.8,30.8h-7.9L51.6,61h-8.8l-1.3,4.6h-8L43.3,34.8z M50,54.8l-1.5-5.3c-0.5-2-1-4.2-1.4-6.6
		c-0.4,2.5-0.8,4.6-1.3,6.6l-1.5,5.3H50z"/>
	<path class="st1" d="M74.3,66.2c-2.2,0-3.7-0.9-4.8-2.1v11.1h-7.2V44.5h6.5v2.1c0.8-1.2,2.5-2.7,5.2-2.7c5.8,0,7.5,5.5,7.5,11.2
		C81.6,61.7,79.3,66.2,74.3,66.2z M69.5,58.4c0.5,1,1.3,1.6,2.4,1.6c1.9,0,2.6-1.7,2.6-5s-0.7-5-2.6-5c-1.1,0-1.9,0.7-2.4,1.6V58.4z
		"/>
	<path class="st1" d="M96.3,66.2c-2.2,0-3.7-0.9-4.8-2.1v11.1h-7.2V44.5h6.5v2.1c0.8-1.2,2.5-2.7,5.2-2.7c5.8,0,7.5,5.5,7.5,11.2
		C103.6,61.7,101.4,66.2,96.3,66.2z M91.6,58.4c0.5,1,1.3,1.6,2.4,1.6c1.9,0,2.6-1.7,2.6-5s-0.7-5-2.6-5c-1.1,0-1.9,0.7-2.4,1.6
		V58.4z"/>
	<path class="st1" d="M125.4,55.1c0,6.9-3.5,11.2-9.9,11.2s-9.9-4.3-9.9-11.2s3.6-11.2,9.9-11.2S125.4,48.1,125.4,55.1z M112.9,55.1
		c0,3.4,0.7,5,2.6,5c1.9,0,2.6-1.6,2.6-5s-0.7-5-2.6-5C113.6,50.1,112.9,51.7,112.9,55.1z"/>
	<path class="st1" d="M127.7,38c0-2.7,1.9-3.9,4.1-3.9s4,1.1,4,3.9s-1.9,4-4,4S127.7,40.7,127.7,38z M128.2,44.5h7.2v21.1h-7.2V44.5
		z"/>
	<path class="st1" d="M138.8,44.5h6.5v1.9c1.2-1.5,3-2.5,5.6-2.5c3.1,0,6.3,2.2,6.3,6.6v15.1h-7.2V52.3c0-1.2-0.6-1.7-1.7-1.7
		c-1.1,0-1.8,0.7-2.4,1.5v13.6h-7.2V44.5z"/>
	<path class="st1" d="M162.1,59v-8.3h-2.6v-6.2h2.6v-4.9l7.2-1.7v6.6h4.2v6.2h-4.2v7c0,1.6,0.6,2.3,2.1,2.3c0.7,0,1.5-0.1,2.1-0.4
		v5.9c-1.2,0.5-2.4,0.7-4.3,0.7C166.2,66.2,162.1,64.9,162.1,59z"/>
	<path class="st1" d="M204.8,50.5v15.1h-7V52.3c0-1.1-0.6-1.7-1.5-1.7c-0.9,0-1.6,0.5-2.2,1.3v13.7h-7.1V52.3c0-1.1-0.5-1.7-1.5-1.7
		c-0.9,0-1.6,0.5-2.2,1.4v13.7h-7.1V44.5h6.5v1.9c1.1-1.4,2.9-2.5,5.4-2.5c2.3,0,3.9,1,4.9,2.5c1.5-1.7,3.4-2.5,5.7-2.5
		C202.8,43.9,204.8,46.9,204.8,50.5z"/>
	<path class="st1" d="M207.3,55.1c0-7,3.6-11.2,9.7-11.2c5.9,0,9.8,4.7,9.1,13.8h-11.4c0.6,2.4,2.2,3.3,4.8,3.3c2,0,3.6-0.3,5.3-0.9
		v5.1c-1.7,0.7-3.7,1.1-6.4,1.1C211.4,66.2,207.3,62.1,207.3,55.1z M219.6,53.3c0-2.4-0.7-3.7-2.3-3.7c-1.7,0-2.6,1.3-2.7,3.7H219.6
		z"/>
	<path class="st1" d="M228.8,44.5h6.5v1.9c1.2-1.5,3-2.5,5.6-2.5c3.1,0,6.3,2.2,6.3,6.6v15.1h-7.2V52.3c0-1.2-0.6-1.7-1.7-1.7
		c-1.1,0-1.8,0.7-2.4,1.5v13.6h-7.2V44.5z"/>
	<path class="st1" d="M252,59v-8.3h-2.6v-6.2h2.6v-4.9l7.2-1.7v6.6h4.2v6.2h-4.2v7c0,1.6,0.6,2.3,2.1,2.3c0.7,0,1.5-0.1,2.1-0.4v5.9
		c-1.2,0.5-2.4,0.7-4.3,0.7C256.2,66.2,252,64.9,252,59z"/>
</g>
</svg>
